<?xml version="1.0" standalone="no"?>
<!DOCTYPE svg PUBLIC "-//W3C//DTD SVG 20010904//EN"
 "http://www.w3.org/TR/2001/REC-SVG-20010904/DTD/svg10.dtd">
<svg version="1.0" xmlns="http://www.w3.org/2000/svg"
 width="1406.000000pt" height="547.000000pt" viewBox="0 0 1406.000000 547.000000"
 preserveAspectRatio="xMidYMid meet">

<g transform="translate(0.000000,547.000000) scale(0.100000,-0.100000)"
fill="#000000" stroke="none">
<path d="M7057 3730 c4 -19 8 -60 7 -91 0 -86 -63 -178 -132 -196 -20 -5 -30
0 -43 18 -51 68 -62 79 -80 79 -30 0 -33 -24 -8 -72 18 -34 23 -60 24 -120 0
-43 0 -78 1 -78 0 0 56 56 124 125 126 127 150 162 150 219 0 41 -18 106 -37
131 -14 18 -14 17 -6 -15z"/>
<path d="M7206 3710 c-18 -45 -21 -125 -7 -163 6 -14 66 -81 134 -149 l124
-123 0 65 c0 45 7 80 22 114 11 27 21 57 21 67 0 29 -45 25 -67 -7 -48 -68
-59 -77 -86 -70 -37 9 -93 70 -113 122 -12 32 -15 63 -12 114 3 38 4 70 3 70
-2 0 -10 -18 -19 -40z"/>
<path d="M7120 3513 c-15 -28 -58 -75 -110 -120 -47 -41 -102 -94 -122 -120
-38 -45 -68 -123 -68 -173 0 -43 55 -140 115 -204 55 -59 56 -59 71 -38 51 73
226 74 277 2 13 -19 16 -17 76 44 159 167 146 276 -57 464 -57 53 -116 118
-131 143 l-27 47 -24 -45z m207 -192 c83 -71 123 -140 123 -208 0 -56 -17 -95
-69 -160 -42 -53 -72 -72 -51 -33 10 18 6 23 -32 40 -24 11 -54 20 -68 20 -14
1 -34 5 -45 10 -18 7 -17 9 10 16 17 5 70 8 118 7 l89 -1 14 35 c8 19 14 42
12 51 -4 23 -76 32 -156 20 -35 -5 -66 -7 -69 -5 -10 10 53 35 132 52 44 10
82 19 84 21 2 2 -11 22 -30 45 -32 40 -34 41 -80 36 -26 -3 -66 -15 -89 -27
-68 -35 -70 -16 -2 28 35 22 68 43 75 45 7 2 10 6 7 9 -3 2 -20 16 -39 31
l-33 28 -46 -26 c-58 -33 -67 -23 -19 21 l38 35 -21 26 c-39 50 -19 48 28 -3
26 -28 79 -79 119 -113z"/>
<path d="M4822 3522 c-63 -23 -116 -64 -157 -121 -41 -58 -47 -154 -15 -229
59 -137 259 -236 437 -216 83 9 104 26 23 19 -81 -8 -192 14 -260 51 -114 62
-194 190 -171 272 15 51 47 97 88 125 56 38 91 48 164 48 150 0 311 -84 714
-372 197 -140 326 -221 449 -280 133 -64 206 -82 315 -77 104 5 164 30 234
100 125 125 128 275 10 394 -150 150 -410 185 -546 73 -20 -17 -42 -40 -49
-52 -8 -16 -2 -13 27 12 76 66 172 91 271 71 175 -36 324 -167 324 -285 0
-111 -128 -231 -258 -242 -125 -11 -299 64 -567 245 -99 68 -248 168 -331 225
-163 110 -311 192 -414 227 -92 31 -218 37 -288 12z"/>
<path d="M9221 3520 c-78 -21 -227 -92 -338 -162 -38 -24 -165 -110 -283 -192
-449 -311 -624 -388 -782 -342 -65 18 -155 93 -182 150 -22 46 -20 118 3 164
45 88 181 179 301 202 101 20 187 -2 268 -67 l47 -38 -26 34 c-35 47 -114 90
-188 102 -169 27 -379 -70 -456 -212 -55 -103 -35 -206 61 -309 70 -74 132
-103 236 -108 201 -10 361 68 859 420 210 148 337 225 444 270 72 29 90 33
182 33 97 0 103 -1 144 -30 106 -75 134 -159 85 -259 -66 -134 -240 -217 -420
-201 -51 4 -57 3 -36 -6 14 -6 66 -12 115 -12 359 -2 555 345 295 524 -92 63
-191 75 -329 39z"/>
<path d="M6682 3435 c-10 -22 -14 -24 -39 -14 -32 13 -149 16 -160 5 -10 -9
17 -26 43 -26 57 0 184 -94 222 -165 l16 -30 9 40 c12 55 3 160 -17 190 -22
33 -59 33 -74 0z"/>
<path d="M7534 3425 c-15 -37 -20 -200 -5 -209 4 -3 13 5 19 18 31 68 125 140
211 161 25 7 47 17 48 22 8 23 -66 24 -167 1 -8 -2 -19 7 -25 20 -7 15 -18 22
-38 22 -23 0 -31 -7 -43 -35z"/>
<path d="M7072 2844 c-52 -36 -7 -94 73 -94 79 0 118 47 75 90 -25 25 -114 28
-148 4z"/>
<path d="M2070 2685 c-43 -45 -93 -48 -135 -9 l-28 26 -36 -36 -36 -36 37 -37
38 -37 28 27 c43 41 88 37 137 -13 l39 -40 41 40 41 40 4945 0 4945 0 34 -35
c19 -19 39 -35 45 -35 6 0 26 16 45 35 44 45 90 48 132 8 l28 -27 30 29 c38
36 38 54 -2 88 l-31 28 -27 -26 c-39 -38 -87 -34 -130 10 -19 19 -39 35 -45
35 -6 0 -26 -16 -45 -35 l-34 -35 -4946 0 -4946 0 -34 35 c-19 19 -39 35 -45
35 -6 0 -26 -16 -45 -35z"/>
<path d="M813 2470 c-52 -50 -93 -53 -135 -13 l-28 27 -35 -35 -35 -35 34 -33
35 -34 31 27 c47 39 83 35 131 -15 l39 -41 45 41 45 41 6197 0 6197 0 43 -42
42 -41 45 41 c54 50 91 55 126 17 31 -33 40 -32 78 8 l32 33 -33 32 c-18 18
-36 32 -40 32 -3 0 -17 -11 -31 -25 -39 -39 -81 -34 -133 17 l-43 42 -43 -42
-43 -42 -6198 0 -6198 0 -40 40 c-22 22 -41 40 -42 40 0 0 -20 -18 -43 -40z"/>
</g>
</svg>
