<?xml version="1.0" standalone="no"?>
<!DOCTYPE svg PUBLIC "-//W3C//DTD SVG 20010904//EN"
 "http://www.w3.org/TR/2001/REC-SVG-20010904/DTD/svg10.dtd">
<svg version="1.0" xmlns="http://www.w3.org/2000/svg"
 width="1406.000000pt" height="547.000000pt" viewBox="0 0 1406.000000 547.000000"
 preserveAspectRatio="xMidYMid meet">

<g transform="translate(0.000000,547.000000) scale(0.100000,-0.100000)"
fill="#000000" stroke="none">
<path d="M593 3110 c-51 -48 -88 -52 -123 -15 -31 33 -40 32 -78 -8 l-32 -33
33 -32 c18 -18 36 -32 40 -32 3 0 17 11 31 25 39 39 81 34 133 -17 l43 -42 43
42 43 42 6198 0 6198 0 40 -40 41 -40 43 40 c54 50 94 53 136 13 l28 -27 35
35 35 35 -34 33 -35 34 -31 -27 c-47 -39 -83 -35 -131 15 l-39 41 -45 -41 -45
-41 -6198 0 -6198 0 -39 40 c-21 22 -42 40 -45 40 -3 0 -24 -18 -47 -40z"/>
<path d="M11905 2900 l-39 -40 -4946 0 -4946 0 -34 35 c-19 19 -39 35 -45 35
-6 0 -26 -16 -45 -35 -44 -45 -90 -48 -132 -8 l-28 27 -30 -29 c-38 -36 -38
-54 2 -88 l31 -28 27 26 c39 38 87 34 130 -10 19 -19 39 -35 45 -35 6 0 26 16
45 35 l34 35 4946 0 4946 0 34 -35 c19 -19 39 -35 45 -35 6 0 26 16 45 35 43
45 93 48 135 9 l28 -26 36 36 36 36 -37 37 -38 37 -28 -27 c-43 -41 -86 -37
-137 13 l-41 40 -39 -40z"/>
<path d="M6010 2714 c-136 -37 -335 -155 -710 -420 -191 -134 -321 -213 -425
-256 -72 -29 -90 -33 -182 -33 -97 0 -103 1 -144 30 -106 75 -134 159 -85 259
66 134 240 217 420 201 51 -4 57 -3 36 6 -45 21 -197 15 -271 -10 -214 -71
-317 -266 -222 -420 33 -52 120 -115 180 -130 107 -28 249 0 404 79 125 63
185 101 449 284 449 311 624 388 782 342 65 -18 155 -93 182 -150 22 -46 20
-118 -3 -164 -45 -88 -181 -179 -301 -202 -101 -20 -187 2 -268 67 l-47 38 26
-34 c84 -113 283 -138 454 -57 183 87 266 249 196 385 -32 62 -101 133 -163
166 -47 26 -64 30 -153 32 -65 1 -119 -3 -155 -13z"/>
<path d="M7545 2713 c-138 -56 -232 -183 -223 -302 5 -71 29 -121 85 -177 150
-150 410 -185 546 -73 20 17 42 40 49 52 8 16 2 13 -27 -12 -76 -66 -172 -91
-271 -71 -175 36 -324 167 -324 285 0 111 128 231 258 242 125 11 299 -64 567
-245 99 -68 248 -168 331 -225 251 -170 413 -244 554 -254 132 -9 235 37 304
135 42 59 48 155 16 230 -59 137 -259 236 -437 216 -83 -9 -104 -26 -23 -19
81 8 192 -14 260 -51 114 -62 194 -190 171 -272 -15 -51 -47 -97 -88 -125 -56
-38 -91 -48 -164 -48 -150 0 -311 84 -714 372 -275 196 -478 310 -610 344 -78
20 -208 19 -260 -2z"/>
<path d="M6855 2708 c-67 -38 -32 -98 58 -98 62 0 97 20 97 55 0 45 -102 73
-155 43z"/>
<path d="M6701 2566 c-159 -167 -146 -276 57 -464 57 -53 116 -118 131 -143
l27 -47 24 45 c15 28 58 75 110 120 47 41 102 94 122 120 38 45 68 123 68 173
0 43 -55 140 -115 204 -55 59 -56 59 -71 38 -51 -73 -226 -74 -277 -2 -13 19
-16 17 -76 -44z m29 -16 c-10 -18 -6 -23 32 -40 24 -11 54 -20 68 -20 14 -1
34 -5 45 -10 18 -7 17 -9 -10 -16 -16 -5 -70 -8 -118 -7 l-89 1 -14 -35 c-8
-19 -14 -42 -12 -51 4 -23 76 -32 156 -20 35 5 66 7 69 5 10 -10 -53 -35 -132
-52 -44 -10 -82 -19 -84 -21 -2 -2 11 -22 30 -45 32 -40 34 -41 80 -36 26 3
66 15 89 27 68 35 70 16 2 -28 -35 -22 -68 -43 -75 -45 -7 -2 -10 -6 -7 -9 3
-2 20 -16 39 -31 l33 -28 46 26 c58 33 67 23 19 -21 l-37 -34 22 -30 c12 -16
19 -32 16 -36 -4 -3 -17 8 -29 26 -13 17 -65 66 -115 110 -168 144 -187 246
-75 388 42 52 72 71 51 32z"/>
<path d="M6512 2236 c-31 -68 -125 -140 -211 -161 -25 -7 -47 -17 -48 -22 -8
-23 66 -24 167 -1 8 2 19 -7 25 -19 7 -16 18 -23 38 -23 40 0 57 46 57 154 0
88 -9 112 -28 72z"/>
<path d="M7285 2206 c-9 -69 0 -141 20 -173 21 -31 58 -30 73 2 10 22 14 24
39 14 31 -12 149 -17 159 -6 11 11 1 16 -55 31 -82 21 -151 76 -216 171 -12
18 -14 14 -20 -39z"/>
<path d="M6603 2130 c0 -45 -7 -80 -22 -114 -11 -27 -21 -57 -21 -67 0 -29 45
-25 67 7 48 68 59 77 86 70 37 -9 93 -70 113 -122 12 -32 15 -63 12 -116 l-5
-73 18 40 c20 43 25 129 10 168 -6 14 -66 81 -134 149 l-124 123 0 -65z"/>
<path d="M7104 2071 c-66 -69 -127 -141 -134 -159 -15 -39 -8 -117 16 -167 22
-47 28 -39 13 19 -15 61 -5 123 31 180 30 47 81 86 112 86 10 0 25 -12 35 -27
28 -47 56 -73 75 -73 29 0 31 24 7 72 -18 34 -23 60 -24 120 0 43 -2 77 -5 77
-3 -1 -59 -59 -126 -128z"/>
</g>
</svg>
