<svg height="512" viewBox="0 0 512 512" width="512" xmlns="http://www.w3.org/2000/svg">
  <g id="Layer_2" data-name="Layer 2">
    <g id="menu_bar">
      <path
        d="m256 0c-141.38 0-256 114.62-256 256s114.62 256 256 256 256-114.62 256-256-114.62-256-256-256zm140 358a29.13 29.13 0 0 1 -29.13 29.13h-221.74a29.13 29.13 0 0 1 -29.13-29.13 29.13 29.13 0 0 1 29.13-29.13h221.74a29.13 29.13 0 0 1 29.13 29.13zm0-102a29.13 29.13 0 0 1 -29.13 29.13h-221.74a29.13 29.13 0 0 1 -29.13-29.13 29.13 29.13 0 0 1 29.13-29.13h221.74a29.13 29.13 0 0 1 29.13 29.13zm0-101.95a29.13 29.13 0 0 1 -29.13 29.13h-221.74a29.13 29.13 0 0 1 -29.13-29.13 29.13 29.13 0 0 1 29.13-29.13h221.74a29.13 29.13 0 0 1 29.13 29.13z"
        fill="#ff2147"
      />
    </g>
  </g>
</svg>
