<?xml version="1.0" standalone="no"?>
<!DOCTYPE svg PUBLIC "-//W3C//DTD SVG 20010904//EN"
 "http://www.w3.org/TR/2001/REC-SVG-20010904/DTD/svg10.dtd">
<svg version="1.0" xmlns="http://www.w3.org/2000/svg"
 width="512.000000pt" height="512.000000pt" viewBox="0 0 512.000000 512.000000"
 preserveAspectRatio="xMidYMid meet">

<g transform="translate(0.000000,512.000000) scale(0.100000,-0.100000)"
fill="#000000" stroke="none">
<path d="M2390 5113 c-190 -12 -445 -62 -632 -125 -390 -130 -705 -325 -999
-618 -203 -202 -337 -383 -462 -620 -199 -377 -291 -752 -291 -1190 0 -584
167 -1078 528 -1560 91 -122 344 -375 466 -466 372 -279 755 -441 1187 -503
701 -102 1386 80 1952 517 102 78 335 308 413 407 568 722 717 1630 407 2495
-77 214 -247 514 -403 709 -518 648 -1328 1005 -2166 954z m-151 -1419 c64
-32 105 -86 120 -155 15 -69 15 -1889 0 -1958 -15 -69 -56 -123 -120 -155 -53
-26 -53 -26 -299 -26 -246 0 -246 0 -299 26 -64 32 -105 86 -120 155 -15 69
-15 1889 0 1958 15 69 56 123 120 155 53 26 53 26 299 26 246 0 246 0 299 -26z
m1240 0 c64 -32 105 -86 120 -155 15 -69 15 -1889 0 -1958 -15 -69 -56 -123
-120 -155 -53 -26 -53 -26 -299 -26 -246 0 -246 0 -299 26 -64 32 -105 86
-120 155 -15 69 -15 1889 0 1958 15 69 56 123 120 155 53 26 53 26 299 26 246
0 246 0 299 -26z" fill="#ff2147"/>
</g>
</svg>
